# xmcd
#
# Track frame offsets:
#	150
#	23808
#	42663
#	57873
#	74993
#	101858
#	126073
#	145780
#	171653
#	188678
#	210813
#	227290
#	250105
#
# Disc length: 3682 seconds
#
# Revision: 0
# Processed by: cddbd v1.5.2PL0 Copyright (c) Steve Scherf et al.
# Submitted via: dBpowerAMP V4.0
#
DISCID=ba0e600d
DTITLE=Various Artist - It's Just Begun
DYEAR=1900
DGENRE=
TTITLE0=SL Troopers - Put Your Brain In Gear
TTITLE1=Rude Boy Business - Cool Sailing
TTITLE2=Katch22 - 2.5 Years
TTITLE3=Superb Cee - Greed Is The Style
TTITLE4=F9s - I'm A Warrior
TTITLE5=Prime Rhyme Masters - You Need Discipline
TTITLE6=Katch22 - Cynical World
TTITLE7=The Korperayshun - Microphone Nutter
TTITLE8=Son Of Noise - Milk In The Chocolate
TTITLE9=Dynametrix - I'm Not A Weakling*
TTITLE10=Pointblank - Planting Semtex
TTITLE11=Moving In The Right Direction - Cinderella
TTITLE12=F9s - Put The Brakes On
EXTD=flat4 done this\nKSCD5
EXTT0=
EXTT1=
EXTT2=
EXTT3=
EXTT4=
EXTT5=
EXTT6=
EXTT7=
EXTT8=
EXTT9=
EXTT10=
EXTT11=
EXTT12=
PLAYORDER=
